<svg width="45" height="43" viewBox="0 0 45 43" fill="none" xmlns="http://www.w3.org/2000/svg">
<path d="M22.536 1.20286e-06C10.5957 5.38544e-07 0.916015 9.6663 0.916014 21.59C0.916014 32.2842 8.71045 41.1408 18.9302 42.8558L18.9302 26.0943L13.7149 26.0943L13.7149 20.0625L18.9302 20.0625L18.9302 15.6149C18.9302 10.4544 22.0865 7.64223 26.6971 7.64223C28.9053 7.64223 30.8029 7.80655 31.3538 7.87892L31.3538 13.273L28.1561 13.2746C25.6492 13.2746 25.1659 14.4639 25.1659 16.2098L25.1659 20.0594L31.1475 20.0594L30.3673 26.0912L25.1659 26.0912L25.1659 43C35.8628 41.6999 44.1558 32.6177 44.1558 21.5838C44.1558 9.6663 34.476 1.86715e-06 22.536 1.20286e-06Z" fill="white"/>
</svg>
