<svg width="34" height="33" viewBox="0 0 34 33" fill="none" xmlns="http://www.w3.org/2000/svg">
<path d="M16.5921 9.23122e-07C7.42863 4.13301e-07 -4.12728e-07 7.41832 -9.21842e-07 16.5691C-1.37846e-06 24.7762 5.98178 31.5731 13.8249 32.8893L13.8249 20.0258L9.82237 20.0258L9.82237 15.3968L13.8249 15.3968L13.8249 11.9835C13.8249 8.02314 16.2471 5.86497 19.7855 5.86497C21.4801 5.86497 22.9365 5.99107 23.3593 6.04661L23.3593 10.1863L20.9051 10.1874C18.9813 10.1874 18.6104 11.1002 18.6104 12.4401L18.6104 15.3944L23.2009 15.3944L22.6022 20.0235L18.6104 20.0235L18.6104 33C26.8196 32.0022 33.184 25.0322 33.184 16.5643C33.184 7.41833 25.7554 1.43293e-06 16.5921 9.23122e-07Z" fill="black"/>
</svg>
