<svg width="33" height="33" viewBox="0 0 33 33" fill="none" xmlns="http://www.w3.org/2000/svg">
<path d="M19.6602 16.5C19.6602 18.2443 18.2462 19.6582 16.502 19.6582C14.7577 19.6582 13.3438 18.2443 13.3438 16.5C13.3438 14.7557 14.7577 13.3418 16.502 13.3418C18.2462 13.3418 19.6602 14.7557 19.6602 16.5Z" fill="black"/>
<path d="M23.884 10.912C23.7322 10.5006 23.49 10.1282 23.1753 9.82259C22.8696 9.50787 22.4975 9.26567 22.0859 9.11385C21.752 8.98419 21.2505 8.82986 20.3267 8.78781C19.3275 8.74224 19.0279 8.73242 16.4981 8.73242C13.968 8.73242 13.6684 8.74199 12.6694 8.78756C11.7457 8.82986 11.2439 8.98419 10.9103 9.11385C10.4986 9.26567 10.1263 9.50787 9.82088 9.82259C9.50617 10.1282 9.26397 10.5004 9.1119 10.912C8.98224 11.2458 8.8279 11.7476 8.78586 12.6714C8.74029 13.6704 8.73047 13.97 8.73047 16.5C8.73047 19.0298 8.74029 19.3294 8.78586 20.3287C8.8279 21.2524 8.98224 21.754 9.1119 22.0878C9.26397 22.4995 9.50592 22.8716 9.82063 23.1772C10.1263 23.4919 10.4984 23.7341 10.91 23.886C11.2439 24.0159 11.7457 24.1702 12.6694 24.2123C13.6684 24.2578 13.9678 24.2674 16.4978 24.2674C19.0281 24.2674 19.3277 24.2578 20.3265 24.2123C21.2502 24.1702 21.752 24.0159 22.0859 23.886C22.9122 23.5672 23.5653 22.9141 23.884 22.0878C24.0137 21.754 24.168 21.2524 24.2103 20.3287C24.2559 19.3294 24.2654 19.0298 24.2654 16.5C24.2654 13.97 24.2559 13.6704 24.2103 12.6714C24.1683 11.7476 24.0139 11.2458 23.884 10.912ZM16.4981 21.365C13.8109 21.365 11.6326 19.1869 11.6326 16.4998C11.6326 13.8126 13.8109 11.6346 16.4981 11.6346C19.185 11.6346 21.3633 13.8126 21.3633 16.4998C21.3633 19.1869 19.185 21.365 16.4981 21.365ZM21.5556 12.5792C20.9277 12.5792 20.4186 12.0701 20.4186 11.4422C20.4186 10.8143 20.9277 10.3052 21.5556 10.3052C22.1835 10.3052 22.6926 10.8143 22.6926 11.4422C22.6924 12.0701 22.1835 12.5792 21.5556 12.5792Z" fill="black"/>
<path d="M16.5 0C7.38869 0 0 7.38869 0 16.5C0 25.6113 7.38869 33 16.5 33C25.6113 33 33 25.6113 33 16.5C33 7.38869 25.6113 0 16.5 0ZM25.9175 20.4062C25.8716 21.4148 25.7113 22.1034 25.4771 22.7061C24.9849 23.9788 23.9788 24.9849 22.7061 25.4771C22.1036 25.7113 21.4148 25.8714 20.4065 25.9175C19.3961 25.9635 19.0733 25.9746 16.5003 25.9746C13.9269 25.9746 13.6044 25.9635 12.5938 25.9175C11.5854 25.8714 10.8966 25.7113 10.2941 25.4771C9.66167 25.2392 9.08915 24.8663 8.61582 24.3842C8.13393 23.9111 7.76106 23.3383 7.52314 22.7061C7.28899 22.1036 7.12862 21.4148 7.08279 20.4065C7.03622 19.3959 7.02539 19.0731 7.02539 16.5C7.02539 13.9269 7.03622 13.6041 7.08254 12.5938C7.12836 11.5852 7.28849 10.8966 7.52264 10.2939C7.76056 9.66167 8.13368 9.0889 8.61582 8.61582C9.0889 8.13368 9.66167 7.76081 10.2939 7.52289C10.8966 7.28874 11.5852 7.12862 12.5938 7.08254C13.6041 7.03647 13.9269 7.02539 16.5 7.02539C19.0731 7.02539 19.3959 7.03647 20.4062 7.08279C21.4148 7.12862 22.1034 7.28874 22.7061 7.52264C23.3383 7.76056 23.9111 8.13368 24.3844 8.61582C24.8663 9.08915 25.2394 9.66167 25.4771 10.2939C25.7115 10.8966 25.8716 11.5852 25.9177 12.5938C25.9638 13.6041 25.9746 13.9269 25.9746 16.5C25.9746 19.0731 25.9638 19.3959 25.9175 20.4062Z" fill="black"/>
</svg>
