<svg width="35" height="33" viewBox="0 0 35 33" fill="none" xmlns="http://www.w3.org/2000/svg">
<path d="M17.5 0C7.83649 0 0 7.38869 0 16.5C0 25.6113 7.83649 33 17.5 33C27.1635 33 35 25.6113 35 16.5C35 7.38869 27.1635 0 17.5 0ZM12.4147 24.9434H8.15266V12.8536H12.4147V24.9434ZM10.2838 11.2028H10.256C8.82584 11.2028 7.90085 10.2745 7.90085 9.11433C7.90085 7.92799 8.85414 7.02539 10.3121 7.02539C11.7701 7.02539 12.6673 7.92799 12.6951 9.11433C12.6951 10.2745 11.7701 11.2028 10.2838 11.2028ZM27.7827 24.9434H23.5212V18.4756C23.5212 16.8502 22.9041 15.7417 21.362 15.7417C20.1847 15.7417 19.4835 16.4894 19.1753 17.2113C19.0627 17.4696 19.0351 17.8306 19.0351 18.1919V24.9434H14.7734C14.7734 24.9434 14.8292 13.9878 14.7734 12.8536H19.0351V14.5654C19.6015 13.7416 20.6149 12.5699 22.8761 12.5699C25.6802 12.5699 27.7827 14.2978 27.7827 18.0111V24.9434Z" fill="#5E5F5F"/>
</svg>
