<svg width="43" height="43" viewBox="0 0 43 43" fill="none" xmlns="http://www.w3.org/2000/svg">
<path d="M21.4573 16.928C23.9459 16.928 25.9634 18.9427 25.9634 21.4279C25.9634 23.9131 23.9459 25.9277 21.4573 25.9277C18.9686 25.9277 16.9512 23.9131 16.9512 21.4279C16.9512 18.9427 18.9686 16.928 21.4573 16.928Z" fill="white"/>
<path d="M21.4577 42.8555C9.60694 42.8555 5.33753e-07 33.2618 1.19217e-06 21.4276C1.85059e-06 9.59326 9.60695 -0.000354232 21.4577 -0.000353573C33.3084 -0.000352914 42.9153 9.59326 42.9153 21.4276C42.9153 33.2619 33.3084 42.8555 21.4577 42.8555ZM34.7149 15.9814C34.6119 13.9442 34.0387 11.9353 32.552 10.4665C31.0509 8.98368 29.0297 8.43119 26.97 8.32936L15.9455 8.32936C13.8855 8.43119 11.8646 8.98334 10.3635 10.4665C8.8767 11.9353 8.30352 13.9442 8.20052 15.9814L8.20052 26.8737C8.30352 28.9109 8.87678 30.9198 10.3635 32.3887C11.8645 33.8715 13.8858 34.424 15.9455 34.5258L26.9699 34.5258C29.0298 34.424 31.0508 33.8718 32.5519 32.3887C34.0387 30.9198 34.6118 28.9109 34.7148 26.8737L34.7149 15.9814Z" fill="white"/>
<path d="M26.8242 32.0445C24.1389 32.118 18.7642 32.118 16.0789 32.0445C14.6815 32.0061 13.0973 31.6588 12.1017 30.5968C11.0671 29.4929 10.6761 28.1592 10.6364 26.6672C10.5668 24.0486 10.6364 16.1888 10.6364 16.1888C10.6818 14.697 11.0671 13.3632 12.1017 12.2593C13.0973 11.197 14.6815 10.8499 16.0789 10.8116C18.7642 10.7381 24.1389 10.7381 26.8242 10.8116C28.2216 10.8499 29.8058 11.1973 30.8014 12.2593C31.836 13.3632 32.227 14.6968 32.2666 16.1888L32.2666 26.6672C32.227 28.1592 31.836 29.4929 30.8014 30.5968C29.8054 31.6591 28.2213 32.0061 26.8242 32.0445ZM21.4512 14.4533C20.0698 14.4533 18.7194 14.8623 17.5708 15.6287C16.4222 16.3951 15.527 17.4844 14.9984 18.7589C14.4697 20.0334 14.3314 21.4358 14.6009 22.7887C14.8704 24.1417 15.5356 25.3845 16.5124 26.36C17.4892 27.3354 18.7337 27.9997 20.0886 28.2688C21.4434 28.5379 22.8478 28.3998 24.124 27.8719C25.4003 27.344 26.4911 26.45 27.2586 25.303C28.026 24.156 28.4357 22.8075 28.4357 21.428C28.4357 19.5782 27.6998 17.8041 26.39 16.4961C25.0801 15.1881 23.3036 14.4533 21.4512 14.4533ZM28.4654 26.9631C28.1891 26.9632 27.9191 27.0451 27.6894 27.1984C27.4597 27.3517 27.2807 27.5696 27.175 27.8245C27.0694 28.0794 27.0418 28.3599 27.0957 28.6304C27.1496 28.901 27.2827 29.1495 27.4781 29.3446C27.6734 29.5396 27.9224 29.6725 28.1933 29.7263C28.4643 29.7801 28.7451 29.7524 29.0004 29.6468C29.2556 29.5412 29.4737 29.3624 29.6272 29.133C29.7807 28.9037 29.8626 28.634 29.8626 28.3581C29.8626 28.1749 29.8265 27.9934 29.7562 27.8242C29.686 27.6549 29.5831 27.5011 29.4533 27.3716C29.3236 27.242 29.1696 27.1393 29 27.0692C28.8305 26.9991 28.6488 26.9631 28.4654 26.9631Z" fill="white"/>
</svg>
