<svg width="43" height="43" viewBox="0 0 43 43" fill="none" xmlns="http://www.w3.org/2000/svg">
<path d="M21.5 0C9.62769 0 0 9.62769 0 21.5C0 33.3723 9.62769 43 21.5 43C33.3723 43 43 33.3723 43 21.5C43 9.62769 33.3723 0 21.5 0ZM15.2523 32.502H10.0161V16.7486H15.2523V32.502ZM12.6344 14.5975H12.6003C10.8432 14.5975 9.70676 13.388 9.70676 11.8762C9.70676 10.3304 10.8779 9.1543 12.6692 9.1543C14.4604 9.1543 15.5627 10.3304 15.5968 11.8762C15.5968 13.388 14.4604 14.5975 12.6344 14.5975ZM34.1331 32.502H28.8975V24.0743C28.8975 21.9563 28.1394 20.5119 26.2448 20.5119C24.7984 20.5119 23.9369 21.4862 23.5583 22.4268C23.4198 22.7634 23.386 23.2338 23.386 23.7046V32.502H18.1501C18.1501 32.502 18.2187 18.2266 18.1501 16.7486H23.386V18.9792C24.0819 17.9057 25.3269 16.3789 28.1049 16.3789C31.5499 16.3789 34.1331 18.6304 34.1331 23.469V32.502Z" fill="white"/>
</svg>
