<svg width="152" height="27" viewBox="0 0 152 27" fill="none" xmlns="http://www.w3.org/2000/svg">
<path d="M8.88505 3.28695C9.11994 2.62503 9.50081 2.02395 9.99966 1.52788C10.4811 1.06155 11.0642 0.712133 11.7034 0.506807C12.3426 0.301481 13.0208 0.245788 13.6852 0.34406C14.3496 0.442332 14.9822 0.69192 15.5339 1.0734C16.0856 1.45489 16.5415 1.95798 16.8661 2.54353C17.9176 4.44919 19.0322 6.31296 20.1152 8.19767C21.9239 11.3284 23.7535 14.4591 25.5411 17.6003C27.0447 20.2284 25.4149 23.5476 22.4286 23.9979C20.5989 24.2701 18.885 23.4324 17.9386 21.799C16.3508 19.0452 14.7595 16.295 13.1647 13.5482C13.1323 13.4884 13.0935 13.4322 13.0491 13.3806C12.8808 13.2445 12.8072 13.0456 12.7021 12.8676C11.9975 11.632 11.272 10.407 10.5675 9.18191C10.1153 8.38615 9.64214 7.60085 9.18999 6.80508C8.78572 6.10578 8.58543 5.30801 8.61166 4.50154C8.6432 4.08272 8.69578 3.66389 8.88505 3.28695Z" fill="#3C8BD9"/>
<path d="M8.88653 3.28711C8.78259 3.66367 8.71568 4.04941 8.68674 4.43888C8.65677 5.30224 8.8757 6.1561 9.31765 6.89948C10.4743 8.87843 11.6275 10.8644 12.7771 12.8573C12.8823 13.0353 12.9664 13.2133 13.0716 13.3808C12.4407 14.4697 11.8097 15.5482 11.1683 16.6372C10.285 18.1554 9.40178 19.6841 8.50799 21.2024C8.46593 21.2024 8.45541 21.1814 8.4449 21.15C8.44347 21.0678 8.45775 20.9861 8.48696 20.9092C8.91808 19.3386 8.56056 17.946 7.4775 16.7523C6.83197 16.05 5.95553 15.6006 5.00644 15.4854C3.74462 15.3074 2.63001 15.632 1.63107 16.4173C1.45231 16.5534 1.33664 16.7523 1.12634 16.857C1.10985 16.8583 1.09344 16.8538 1.07999 16.8442C1.06653 16.8346 1.05688 16.8206 1.05273 16.8047C1.55746 15.9356 2.05168 15.0666 2.5564 14.1975C4.63841 10.5956 6.72391 6.9972 8.81293 3.40229C8.83396 3.3604 8.8655 3.32899 8.88653 3.28711Z" fill="#FABC04"/>
<path d="M1.09417 16.8393C1.29396 16.6613 1.48323 16.4728 1.69354 16.3053C4.24872 14.2949 8.08676 15.7503 8.64406 18.9334C8.7728 19.6793 8.71501 20.4453 8.47582 21.1636C8.46681 21.224 8.45274 21.2836 8.43376 21.3416C8.33912 21.5092 8.255 21.6872 8.14985 21.8547C7.214 23.3939 5.83651 24.1582 4.0279 24.0431C3.0301 23.9755 2.08693 23.5646 1.35989 22.8808C0.632856 22.1969 0.167196 21.2827 0.042657 20.2946C-0.096719 19.3274 0.107862 18.3422 0.620991 17.5094C0.726143 17.3209 0.852325 17.1534 0.967991 16.9649C1.02057 16.923 0.999537 16.8393 1.09417 16.8393Z" fill="#34A852"/>
<path d="M1.09191 16.8388C1.04985 16.8806 1.04985 16.9539 0.976244 16.9644C0.965728 16.8911 1.00779 16.8492 1.04985 16.7969L1.09191 16.8388Z" fill="#FABC04"/>
<path d="M43.5367 1.59644C40.9775 1.5838 38.5168 2.57768 36.6897 4.36198C34.8625 6.14627 33.8165 8.5767 33.7793 11.1248C33.7793 16.3818 38.2102 20.6062 43.5367 20.6062C46.4121 20.6062 48.5333 19.6674 50.2302 17.9307C51.9271 16.194 52.4928 13.8002 52.4928 11.8758C52.4987 11.3249 52.4514 10.7748 52.3514 10.233H43.5367V12.8145H49.806C49.7176 14.0366 49.2196 15.1936 48.3918 16.1002C47.7605 16.7382 47.003 17.2387 46.1672 17.57C45.3314 17.9013 44.4357 18.0561 43.5367 18.0246C41.699 18.0246 39.9365 17.2977 38.637 16.0037C37.3376 14.7097 36.6075 12.9547 36.6075 11.1248C36.6075 9.29484 37.3376 7.53984 38.637 6.24587C39.9365 4.9519 41.699 4.22495 43.5367 4.22495C44.4089 4.20565 45.276 4.362 46.086 4.68463C46.896 5.00726 47.6322 5.48952 48.2504 6.10246L50.0888 4.27189C49.2334 3.41026 48.2122 2.72925 47.0864 2.26955C45.9607 1.80986 44.7534 1.58092 43.5367 1.59644ZM59.5162 8.4024C58.2818 8.38377 57.0697 8.73126 56.0341 9.40064C54.9986 10.07 54.1864 11.031 53.701 12.1614C53.2155 13.2917 53.0788 14.5404 53.3081 15.7483C53.5375 16.9563 54.1225 18.069 54.9888 18.945C55.8551 19.8209 56.9635 20.4203 58.173 20.6671C59.3825 20.9139 60.6383 20.7968 61.7808 20.3307C62.9232 19.8647 63.9006 19.0707 64.5886 18.0499C65.2765 17.0291 65.6439 15.8275 65.6441 14.5982C65.6637 13.7871 65.5193 12.9804 65.2195 12.226C64.9197 11.4717 64.4706 10.7851 63.8989 10.207C63.3272 9.62899 62.6446 9.17135 61.8917 8.86133C61.1388 8.55131 60.3309 8.39524 59.5162 8.4024ZM59.5162 18.3532C57.6779 18.3532 56.0752 16.8042 56.0752 14.5982C56.0752 12.3921 57.6779 10.8432 59.5162 10.8432C61.3546 10.8432 62.9573 12.3452 62.9573 14.5982C62.9573 16.8512 61.3546 18.3532 59.5162 18.3532ZM72.8089 8.4024C71.5745 8.38377 70.3624 8.73126 69.3268 9.40064C68.2913 10.07 67.4791 11.031 66.9937 12.1614C66.5082 13.2917 66.3715 14.5404 66.6008 15.7483C66.8302 16.9563 67.4152 18.069 68.2815 18.945C69.1478 19.8209 70.2562 20.4203 71.4657 20.6671C72.6752 20.9139 73.931 20.7968 75.0735 20.3307C76.2159 19.8647 77.1933 19.0707 77.8813 18.0499C78.5692 17.0291 78.9366 15.8275 78.9368 14.5982C78.9597 13.7863 78.8176 12.9781 78.519 12.2223C78.2203 11.4664 77.7714 10.7785 77.199 10.1998C76.6266 9.62105 75.9427 9.16352 75.1883 8.85466C74.4339 8.54579 73.6246 8.39195 72.8089 8.4024ZM72.8089 18.3532C70.9706 18.3532 69.3679 16.8042 69.3679 14.5982C69.3679 12.3921 70.9706 10.8432 72.8089 10.8432C74.6473 10.8432 76.25 12.3452 76.25 14.5982C76.25 16.8512 74.6944 18.3532 72.8089 18.3532ZM86.0545 8.4024C82.9906 8.4024 80.2095 11.0778 80.2095 14.5512C80.2095 18.0246 82.9906 20.6531 86.0545 20.6531C86.6599 20.6674 87.261 20.5486 87.815 20.3052C88.369 20.0618 88.8623 19.6998 89.2598 19.245H89.3541V20.1368C89.3541 22.4837 88.1285 23.751 86.1016 23.751C85.4333 23.7348 84.785 23.5208 84.2393 23.1363C83.6936 22.7517 83.2753 22.2141 83.0377 21.5919L80.6809 22.5776C81.1138 23.6535 81.8629 24.5743 82.8301 25.2192C83.7974 25.864 84.9377 26.203 86.1016 26.1918C89.2598 26.1918 91.8995 24.3143 91.8995 19.8082V8.82483H89.3541V9.81053H89.2598C88.8623 9.35567 88.369 8.99367 87.815 8.75029C87.261 8.50691 86.6599 8.38812 86.0545 8.4024ZM86.2902 18.2593C84.4518 18.2593 82.8963 16.7104 82.8963 14.5512C82.8963 12.3921 84.4518 10.7962 86.2902 10.7962C88.1285 10.7962 89.5427 12.3921 89.5427 14.5512C89.5427 16.7104 88.1285 18.2593 86.2902 18.2593ZM93.8793 2.36153H96.5661V20.4795H93.8793V2.36153ZM103.778 8.41648C100.573 8.41648 97.8859 10.9042 97.8859 14.6122C97.8681 15.4268 98.0153 16.2365 98.3187 16.9932C98.6222 17.7498 99.0756 18.4378 99.6519 19.0161C100.228 19.5944 100.916 20.0511 101.673 20.359C102.431 20.6668 103.243 20.8195 104.061 20.808C105.084 20.8188 106.094 20.5755 106.999 20.1002C107.905 19.6249 108.677 18.9325 109.246 18.0856L107.125 16.6775C106.803 17.198 106.353 17.627 105.816 17.9231C105.279 18.2191 104.675 18.3721 104.061 18.3673C103.425 18.4024 102.794 18.2408 102.254 17.9047C101.714 17.5685 101.291 17.0743 101.044 16.4898L109.387 13.0633L109.105 12.3592C108.586 10.998 106.983 8.41648 103.778 8.41648ZM100.573 14.4245C100.543 13.9735 100.605 13.5213 100.753 13.0942C100.902 12.6671 101.134 12.2738 101.437 11.9373C101.74 11.6007 102.107 11.3277 102.517 11.1342C102.927 10.9407 103.372 10.8306 103.825 10.8103C104.909 10.8103 105.852 11.3266 106.135 12.1245L100.573 14.4245Z" fill="#757575"/>
<path d="M114.102 20.1978L120.324 3.72266H122.728L128.95 20.1978H126.593L124.99 15.7387H118.061L116.458 20.1978H114.102ZM118.768 13.7673H124.283L121.596 6.35117H121.502L118.768 13.7673Z" fill="#757575"/>
<path d="M131.118 18.8229C130.077 17.6457 129.521 16.1198 129.563 14.5516C129.538 12.986 130.091 11.4659 131.118 10.2803C131.588 9.72936 132.173 9.28816 132.833 8.98801C133.493 8.68785 134.211 8.53611 134.936 8.54357C135.721 8.5366 136.496 8.71345 137.199 9.05987C137.854 9.37265 138.408 9.86009 138.802 10.468H138.896L138.802 8.91906V3.70898H140.923V20.1982H138.896V18.6492H138.802C138.395 19.2456 137.844 19.73 137.199 20.0574C136.5 20.4146 135.722 20.5921 134.936 20.5737C134.21 20.5861 133.49 20.4365 132.83 20.136C132.169 19.8355 131.584 19.3917 131.118 18.837M137.812 17.5227C138.481 16.6902 138.846 15.6556 138.846 14.5891C138.846 13.5227 138.481 12.488 137.812 11.6555C137.49 11.3012 137.097 11.018 136.659 10.8242C136.22 10.6303 135.746 10.5302 135.266 10.5302C134.787 10.5302 134.312 10.6303 133.874 10.8242C133.435 11.018 133.043 11.3012 132.721 11.6555C132.05 12.4784 131.684 13.5059 131.684 14.5657C131.684 15.6254 132.05 16.6529 132.721 17.4758C133.04 17.8336 133.432 18.1193 133.871 18.3136C134.31 18.5079 134.786 18.6063 135.266 18.6023C135.746 18.6349 136.227 18.5541 136.669 18.3665C137.111 18.1788 137.503 17.8897 137.812 17.5227Z" fill="#757575"/>
<path d="M150.727 19.5268C149.816 20.1735 148.732 20.5327 147.614 20.5578C146.496 20.5829 145.396 20.2728 144.457 19.6676C143.621 19.088 142.98 18.2699 142.619 17.3207L144.505 16.5228C144.747 17.1631 145.173 17.7181 145.73 18.1187C146.237 18.4855 146.848 18.6827 147.474 18.6819C148.068 18.6988 148.655 18.5526 149.171 18.2595C149.365 18.1628 149.528 18.0158 149.644 17.8339C149.761 17.6521 149.825 17.4423 149.831 17.2268C149.831 16.5228 149.265 15.9595 148.181 15.631L146.249 15.1616C144.033 14.5983 142.949 13.5657 142.949 11.9698C142.942 11.4833 143.054 11.0023 143.275 10.5687C143.497 10.1351 143.822 9.76211 144.222 9.48214C145.163 8.83832 146.286 8.50953 147.427 8.54339C148.384 8.53697 149.327 8.77967 150.161 9.24746C150.926 9.68304 151.523 10.3603 151.858 11.1719L149.973 11.9698C149.745 11.5011 149.385 11.1094 148.936 10.8433C148.434 10.556 147.864 10.41 147.286 10.4209C146.753 10.4174 146.23 10.5639 145.777 10.8433C145.587 10.9435 145.426 11.0914 145.31 11.2725C145.194 11.4536 145.128 11.6616 145.117 11.876C145.117 12.5331 145.73 13.0025 146.956 13.2372L148.653 13.6596C150.915 14.2228 151.999 15.3493 151.999 17.0391C152.012 17.5265 151.902 18.0093 151.68 18.4437C151.458 18.8781 151.13 19.2504 150.727 19.5268Z" fill="#757575"/>
</svg>
