<svg width="57" height="37" viewBox="0 0 57 37" fill="none" xmlns="http://www.w3.org/2000/svg">
<path d="M56.474 24.6665H0V36.0263C0 36.564 0.436019 37 0.973735 37H55.5003C56.0381 37 56.4741 36.564 56.4741 36.0263L56.474 24.6665Z" fill="#FAB446"/>
<path d="M55.5002 0.000599861H0.973735C0.436019 0.000599861 0 0.436619 0 0.974335V12.334H56.474V0.974335C56.474 0.436508 56.0379 0.000599861 55.5002 0.000599861Z" fill="#73AF00"/>
<path d="M56.474 24.668H0V12.3352H56.474V24.668Z" fill="#F5F5F5"/>
<path d="M28.2335 13.2634C25.3476 13.2634 23 15.611 23 18.4969C23 21.3828 25.3476 23.7305 28.2335 23.7305C31.1195 23.7305 33.4671 21.3828 33.4671 18.4969C33.4671 15.611 31.1195 13.2634 28.2335 13.2634ZM28.2335 22.7568C25.8844 22.7568 23.9736 20.8461 23.9736 18.4969C23.9736 16.1477 25.8844 14.237 28.2335 14.237C30.5827 14.237 32.4935 16.1477 32.4935 18.4969C32.4935 20.8461 30.5827 22.7568 28.2335 22.7568Z" fill="#41479B"/>
<path d="M28.2339 17.9032C28.5616 17.9032 28.8272 18.1689 28.8272 18.4965C28.8272 18.8242 28.5616 19.0898 28.2339 19.0898C27.9063 19.0898 27.6406 18.8242 27.6406 18.4965C27.6406 18.1689 27.9063 17.9032 28.2339 17.9032Z" fill="#41479B"/>
<path d="M28.2311 18.408L26.7232 18.2558L23.4844 18.408V18.5861L26.7232 18.7383L28.2311 18.5861V18.408Z" fill="#41479B"/>
<path d="M28.2305 18.408L29.7383 18.2558L32.9771 18.408V18.5861L29.7383 18.7383L28.2305 18.5861V18.408Z" fill="#41479B"/>
<path d="M28.1444 18.4955L27.9922 20.0033L28.1444 23.2422H28.3224L28.4746 20.0033L28.3224 18.4955H28.1444Z" fill="#41479B"/>
<path d="M28.1444 18.4961L27.9922 16.9883L28.1444 13.7494H28.3224L28.4746 16.9883L28.3224 18.4961H28.1444Z" fill="#41479B"/>
<path d="M28.169 18.4338L26.9951 19.3922L24.8125 21.7902L24.9384 21.916L27.3363 19.7334L28.2947 18.5596L28.169 18.4338Z" fill="#41479B"/>
<path d="M28.1758 18.4348L29.1342 17.261L31.5321 15.0784L31.658 15.2042L29.4753 17.6021L28.3015 18.5605L28.1758 18.4348Z" fill="#41479B"/>
<path d="M28.1758 18.5596L29.1342 19.7334L31.5321 21.916L31.658 21.7902L29.4753 19.3922L28.3015 18.4338L28.1758 18.5596Z" fill="#41479B"/>
<path d="M28.169 18.5605L26.9951 17.6021L24.8125 15.2042L24.9384 15.0784L27.3363 17.261L28.2947 18.4348L28.169 18.5605Z" fill="#41479B"/>
<path d="M28.266 18.4136L26.9311 17.6959L23.8807 16.5971L23.8125 16.7616L26.7466 18.1417L28.1978 18.5781L28.266 18.4136Z" fill="#41479B"/>
<path d="M28.2674 18.4135L29.7186 18.85L32.6527 20.2301L32.5846 20.3945L29.5341 19.2957L28.1992 18.5781L28.2674 18.4135Z" fill="#41479B"/>
<path d="M28.1524 18.4645L27.4348 19.7993L26.3359 22.8498L26.5004 22.918L27.8805 19.9839L28.3169 18.5326L28.1524 18.4645Z" fill="#41479B"/>
<path d="M28.1484 18.4631L28.5849 17.0119L29.965 14.0777L30.1294 14.1459L29.0306 17.1964L28.313 18.5312L28.1484 18.4631Z" fill="#41479B"/>
<path d="M28.1978 18.4135L26.7466 18.85L23.8125 20.2301L23.8807 20.3945L26.9311 19.2957L28.266 18.5781L28.1978 18.4135Z" fill="#41479B"/>
<path d="M28.1992 18.4136L29.5341 17.6959L32.5846 16.5971L32.6527 16.7616L29.7186 18.1417L28.2674 18.5781L28.1992 18.4136Z" fill="#41479B"/>
<path d="M28.1484 18.5326L28.5849 19.9839L29.965 22.918L30.1294 22.8498L29.0306 19.7993L28.313 18.4645L28.1484 18.5326Z" fill="#41479B"/>
<path d="M28.1524 18.5312L27.4348 17.1964L26.3359 14.1459L26.5004 14.0777L27.8805 17.0119L28.3169 18.4631L28.1524 18.5312Z" fill="#41479B"/>
<path d="M28.2339 17.7021C28.676 17.7021 29.0343 18.0604 29.0343 18.5024C29.0343 18.9444 28.676 19.3027 28.2339 19.3027C27.7919 19.3027 27.4336 18.9444 27.4336 18.5024C27.4336 18.0604 27.7919 17.7021 28.2339 17.7021Z" fill="#F5F5F5"/>
<path d="M28.2377 18.0206C28.5028 18.0206 28.7177 18.2355 28.7177 18.5005C28.7177 18.7656 28.5028 18.9805 28.2377 18.9805C27.9727 18.9805 27.7578 18.7656 27.7578 18.5005C27.7578 18.2355 27.9727 18.0206 28.2377 18.0206Z" fill="#41479B"/>
</svg>
