<svg width="299" height="299" viewBox="0 0 299 299" fill="none" xmlns="http://www.w3.org/2000/svg">
<path d="M124.988 36.4661C126.151 30.9257 133.531 29.7328 136.38 34.6247C138.94 39.0183 145.413 38.616 147.409 33.9392C149.631 28.7321 157.102 29.002 158.942 34.3557C160.595 39.1643 167.023 40.0326 169.893 35.835C173.088 31.1615 180.362 32.8836 181.123 38.4935C181.806 43.5322 187.941 45.6378 191.574 42.0807C195.62 38.1203 202.419 41.2286 202.07 46.8791C201.757 51.9542 207.363 55.2162 211.621 52.4363C216.361 49.3412 222.423 53.7161 220.979 59.1901C219.682 64.1067 224.544 68.3997 229.262 66.5039C234.515 64.393 239.607 69.8665 237.123 74.9536C234.891 79.5226 238.823 84.6817 243.82 83.7427C249.384 82.6973 253.31 89.0589 249.881 93.5636C246.801 97.6095 249.65 103.436 254.735 103.49C260.396 103.55 263.005 110.556 258.764 114.305C254.954 117.672 256.611 123.943 261.587 124.988C267.128 126.151 268.321 133.531 263.429 136.381C259.035 138.94 259.438 145.414 264.114 147.409C269.321 149.631 269.052 157.102 263.698 158.943C258.889 160.596 258.021 167.023 262.219 169.893C266.892 173.088 265.17 180.363 259.56 181.123C254.521 181.806 252.416 187.941 255.973 191.575C259.933 195.62 256.825 202.419 251.174 202.071C246.099 201.758 242.837 207.364 245.617 211.621C248.712 216.362 244.337 222.423 238.863 220.979C233.947 219.682 229.654 224.544 231.55 229.263C233.66 234.516 228.187 239.607 223.1 237.123C218.531 234.892 213.372 238.823 214.311 243.82C215.356 249.384 208.995 253.31 204.49 249.881C200.444 246.802 194.617 249.651 194.563 254.735C194.503 260.396 187.498 263.006 183.749 258.764C180.381 254.954 174.11 256.612 173.065 261.588C171.902 267.128 164.522 268.321 161.673 263.429C159.113 259.036 152.64 259.438 150.644 264.115C148.422 269.322 140.951 269.052 139.111 263.698C137.458 258.89 131.03 258.021 128.16 262.219C124.965 266.892 117.691 265.17 116.93 259.56C116.247 254.522 110.112 252.416 106.479 255.973C102.433 259.934 95.6345 256.825 95.983 251.175C96.2959 246.1 90.6897 242.838 86.4322 245.618C81.6919 248.713 75.63 244.338 77.0741 238.864C78.3712 233.947 73.5091 229.654 68.791 231.55C63.538 233.661 58.4461 228.187 60.9304 223.1C63.1617 218.531 59.2306 213.372 54.2333 214.311C48.6694 215.357 44.7431 208.995 48.1721 204.49C51.2519 200.444 48.4028 194.617 43.3184 194.563C37.6574 194.503 35.0477 187.498 39.2897 183.749C43.0996 180.382 41.442 174.111 36.4658 173.066C30.9253 171.903 29.7325 164.523 34.6243 161.673C39.018 159.114 38.6156 152.64 33.9388 150.644C28.7318 148.423 29.0016 140.952 34.3554 139.111C39.1639 137.458 40.0323 131.03 35.8347 128.161C31.1611 124.966 32.8833 117.691 38.4932 116.931C43.5319 116.247 45.6375 110.113 42.0804 106.479C38.12 102.434 41.2282 95.6349 46.8788 95.9833C51.9539 96.2963 55.2159 90.6901 52.436 86.4325C49.3409 81.6922 53.7158 75.6304 59.1898 77.0745C64.1063 78.3715 68.3994 73.5094 66.5035 68.7913C64.3927 63.5383 69.8661 58.4465 74.9532 60.9307C79.5222 63.162 84.6814 59.2309 83.7424 54.2336C82.6969 48.6697 89.0586 44.7435 93.5632 48.1725C97.6091 51.2523 103.436 48.4032 103.49 43.3187C103.55 37.6578 110.556 35.0481 114.305 39.29C117.672 43.0999 123.943 41.4424 124.988 36.4661Z" fill="black"/>
<rect x="111.287" y="109.926" width="75.8833" height="75.8833" rx="37.9416" transform="rotate(1.00698 111.287 109.926)" fill="url(#paint0_linear_1511_32)"/>
<path d="M79.3003 171.832C79.5939 171.952 79.868 172.087 80.1225 172.238C80.377 172.39 80.6176 172.572 80.8443 172.785C81.0606 172.994 81.2571 173.24 81.4336 173.524C81.6175 173.805 81.7821 174.136 81.9272 174.518C82.1463 175.093 82.2451 175.668 82.2235 176.241C82.202 176.814 82.0801 177.348 81.8578 177.844C81.628 178.342 81.3048 178.786 80.8881 179.176C80.4715 179.565 79.9828 179.867 79.422 180.08L79.3996 180.089C78.8388 180.302 78.277 180.401 77.7142 180.384C77.1439 180.37 76.6073 180.253 76.1043 180.033C75.5939 179.817 75.1387 179.498 74.7387 179.077C74.3312 178.658 74.0122 178.146 73.7817 177.541C73.6423 177.174 73.5456 176.83 73.4916 176.508C73.4347 176.179 73.4117 175.871 73.4225 175.584C73.4332 175.298 73.4736 175.021 73.5434 174.755C73.6133 174.489 73.7038 174.232 73.8149 173.984L75.5005 174.601C75.3406 175.013 75.2433 175.409 75.2086 175.791C75.1711 176.164 75.2278 176.549 75.3786 176.946C75.5038 177.275 75.684 177.557 75.9192 177.793C76.1516 178.021 76.4184 178.193 76.7195 178.31C77.0207 178.426 77.3421 178.484 77.6839 178.482C78.0181 178.483 78.3535 178.42 78.69 178.292L78.7124 178.283C79.0488 178.155 79.3453 177.978 79.6017 177.752C79.8581 177.526 80.0614 177.273 80.2117 176.994C80.3592 176.706 80.4476 176.399 80.4769 176.071C80.4959 175.739 80.4413 175.404 80.3133 175.068C80.1425 174.619 79.9166 174.273 79.6354 174.029C79.3514 173.777 79.009 173.552 78.6083 173.354L79.3003 171.832Z" fill="white"/>
<path d="M73.6365 162.094L73.6551 162.188C73.773 162.784 74.0466 163.22 74.4759 163.494C74.9036 163.76 75.4981 163.817 76.2594 163.667L78.5903 163.206L78.9439 164.996L72.634 166.243L72.2803 164.453L73.5517 164.202C73.0844 164.107 72.6902 163.928 72.3692 163.665C72.0482 163.403 71.8467 163.002 71.7647 162.464L73.6365 162.094Z" fill="white"/>
<path d="M74.1478 148.175C74.2358 148.172 74.3119 148.174 74.3761 148.181C74.4401 148.179 74.5161 148.181 74.6043 148.187L74.7235 152.661C75.137 152.562 75.4481 152.374 75.6568 152.096C75.8572 151.811 75.9521 151.464 75.9412 151.056C75.9331 150.752 75.8739 150.482 75.7635 150.244C75.6532 150.007 75.4786 149.764 75.2399 149.514L76.1358 148.446C76.5197 148.74 76.8254 149.1 77.0528 149.526C77.2723 149.952 77.3898 150.457 77.4053 151.041C77.4181 151.521 77.35 151.971 77.2012 152.391C77.0521 152.803 76.8337 153.165 76.5459 153.477C76.2578 153.781 75.9161 154.022 75.5208 154.2C75.1174 154.379 74.6678 154.475 74.1719 154.488L74.148 154.489C73.6921 154.501 73.2582 154.437 72.8463 154.296C72.4342 154.146 72.0725 153.936 71.7611 153.664C71.4498 153.392 71.201 153.067 71.0149 152.688C70.8285 152.301 70.729 151.871 70.7165 151.399C70.7022 150.863 70.7858 150.397 70.9673 150C71.1488 149.603 71.4001 149.272 71.7212 149.008C72.034 148.735 72.4008 148.533 72.8214 148.402C73.2339 148.263 73.668 148.188 74.1239 148.175L74.1478 148.175ZM73.5114 149.968C73.105 150.035 72.781 150.188 72.5392 150.426C72.2895 150.665 72.1697 150.976 72.18 151.36C72.1902 151.744 72.3224 152.053 72.5767 152.286C72.8308 152.511 73.1668 152.654 73.5845 152.715L73.5114 149.968Z" fill="white"/>
<path d="M78.4221 135.887L78.1727 137.634L77.4836 137.535C77.6975 137.792 77.8576 138.086 77.9639 138.416C78.0624 138.745 78.0799 139.132 78.0165 139.575C77.9736 139.876 77.8932 140.155 77.7756 140.413C77.6511 140.662 77.4916 140.874 77.297 141.048C77.1024 141.222 76.8778 141.352 76.6233 141.437C76.3619 141.513 76.0729 141.528 75.7561 141.483L75.7323 141.479C75.3839 141.429 75.092 141.323 74.8566 141.16C74.6213 140.997 74.4363 140.793 74.3017 140.547C74.1682 140.294 74.0839 140.007 74.0488 139.687C74.007 139.358 74.0132 139.003 74.0675 138.623C74.1139 138.298 74.1778 138.021 74.2592 137.79C74.3418 137.551 74.4391 137.322 74.5511 137.104L74.4442 137.089C74.0641 137.035 73.7586 137.108 73.5278 137.309C73.297 137.511 73.1494 137.837 73.0849 138.289C73.0351 138.637 73.0227 138.951 73.0476 139.229C73.0657 139.498 73.1092 139.787 73.1782 140.096L71.7357 140.351C71.635 139.981 71.5643 139.599 71.5236 139.205C71.4829 138.811 71.501 138.345 71.5779 137.807C71.7193 136.817 72.0638 136.131 72.6114 135.748C73.159 135.366 73.8644 135.236 74.7276 135.36L78.4221 135.887ZM75.9325 137.277L75.6118 137.231C75.5179 137.38 75.437 137.55 75.3691 137.742C75.2944 137.926 75.2413 138.128 75.2096 138.35C75.1542 138.738 75.1858 139.053 75.3046 139.297C75.4234 139.54 75.6254 139.682 75.9105 139.723L75.9343 139.726C76.1798 139.761 76.3828 139.697 76.5435 139.534C76.7041 139.371 76.8054 139.143 76.8473 138.85C76.9084 138.423 76.854 138.067 76.6843 137.785C76.5158 137.494 76.2652 137.325 75.9325 137.277Z" fill="white"/>
<path d="M81.1664 124.873C81.2144 125.09 81.2334 125.319 81.2235 125.559C81.2212 125.802 81.1736 126.068 81.0808 126.358C80.9953 126.624 80.8866 126.858 80.7548 127.06C80.6331 127.256 80.4742 127.411 80.2781 127.524C80.0845 127.63 79.8588 127.692 79.6009 127.71C79.3379 127.718 79.0274 127.665 78.6693 127.55L75.767 126.619L75.5324 127.35L74.047 126.874L74.2815 126.143L72.7161 125.64L73.2732 123.904L74.8387 124.406L75.3005 122.966L76.7859 123.443L76.3241 124.882L78.9408 125.722C79.3369 125.849 79.5948 125.726 79.7146 125.352C79.8123 125.048 79.8316 124.739 79.7724 124.426L81.1664 124.873Z" fill="white"/>
<path d="M79.491 111.799L78.6062 113.503L77.1684 112.756L78.0532 111.052L79.491 111.799ZM85.8056 115.131L84.965 116.75L79.2567 113.786L80.0972 112.168L85.8056 115.131Z" fill="white"/>
<path d="M89.0354 98.7521L92.6769 104.68L91.6781 106.001L84.9823 104.112L86.1476 102.571L90.4523 104.021L87.8919 100.264L89.0354 98.7521Z" fill="white"/>
<path d="M100.235 92.2132C100.295 92.2773 100.345 92.3354 100.383 92.3875C100.426 92.4341 100.476 92.4922 100.53 92.5618L97.2699 95.6287C97.619 95.8714 97.9666 95.9782 98.3127 95.9492C98.6592 95.9088 98.981 95.7489 99.2782 95.4693C99.4996 95.261 99.6621 95.0368 99.7657 94.7966C99.8692 94.5564 99.9347 94.2641 99.9622 93.9197L101.356 93.8774C101.392 94.3596 101.327 94.8273 101.16 95.2807C100.988 95.7281 100.689 96.152 100.264 96.5521C99.9142 96.881 99.5331 97.1297 99.1204 97.2982C98.7136 97.4612 98.2981 97.5391 97.8739 97.5318C97.4555 97.519 97.048 97.4245 96.6516 97.2482C96.2497 97.0661 95.8788 96.7945 95.5389 96.4332L95.5225 96.4157C95.21 96.0836 94.9694 95.7169 94.8006 95.3155C94.6376 94.9087 94.5539 94.4987 94.5495 94.0854C94.5452 93.6721 94.6226 93.2698 94.7817 92.8785C94.9466 92.4818 95.2009 92.1217 95.5447 91.7983C95.9351 91.431 96.3389 91.183 96.756 91.0543C97.173 90.9255 97.5872 90.8929 97.9984 90.9564C98.4099 91.0086 98.8047 91.148 99.1826 91.3746C99.5609 91.5899 99.9062 91.8636 100.219 92.1958L100.235 92.2132ZM98.4728 92.9319C98.1525 92.6731 97.8229 92.5329 97.484 92.5112C97.1396 92.4837 96.8275 92.6015 96.5478 92.8646C96.2681 93.1277 96.1259 93.4318 96.121 93.7769C96.1219 94.1165 96.2387 94.4624 96.4713 94.8148L98.4728 92.9319Z" fill="white"/>
<path d="M123.189 81.8382L121.576 82.554L121.294 81.9178C121.19 82.2354 121.026 82.5269 120.803 82.7925C120.576 83.0507 120.258 83.2707 119.848 83.4524C119.57 83.5758 119.291 83.6561 119.01 83.6934C118.733 83.7201 118.469 83.6972 118.218 83.6248C117.967 83.5524 117.738 83.4309 117.531 83.2602C117.328 83.079 117.161 82.8422 117.032 82.5497L117.022 82.5277C116.879 82.206 116.814 81.9022 116.827 81.6163C116.84 81.3304 116.915 81.0652 117.052 80.8208C117.196 80.5731 117.394 80.3494 117.647 80.1497C117.903 79.9394 118.207 79.7563 118.558 79.6005C118.858 79.4674 119.127 79.3741 119.366 79.3206C119.612 79.2638 119.858 79.225 120.102 79.2039L120.058 79.1052C119.903 78.7543 119.678 78.5344 119.385 78.4458C119.092 78.3571 118.737 78.4053 118.32 78.5904C117.998 78.7332 117.726 78.889 117.503 79.0579C117.285 79.2162 117.063 79.4066 116.838 79.6291L115.856 78.5418C116.116 78.2601 116.402 77.9974 116.714 77.7539C117.026 77.5103 117.431 77.2782 117.928 77.0574C118.842 76.6517 119.607 76.5793 120.221 76.8403C120.836 77.1012 121.32 77.6302 121.674 78.4272L123.189 81.8382ZM120.689 80.4665L120.557 80.1703C120.382 80.1694 120.195 80.1913 119.996 80.2359C119.801 80.2699 119.601 80.3324 119.396 80.4233C119.038 80.5823 118.787 80.7768 118.644 81.0066C118.501 81.2364 118.488 81.4829 118.605 81.7462L118.615 81.7681C118.715 81.9948 118.877 82.1329 119.101 82.1826C119.324 82.2322 119.571 82.197 119.841 82.0769C120.236 81.9016 120.509 81.6669 120.658 81.3729C120.815 81.0757 120.825 80.7735 120.689 80.4665Z" fill="white"/>
<path d="M133.73 76.632C133.819 76.9809 133.834 77.2991 133.775 77.5865C133.722 77.8642 133.607 78.1121 133.432 78.3301C133.256 78.5482 133.032 78.7374 132.759 78.8977C132.492 79.0482 132.191 79.166 131.858 79.2508C131.416 79.3633 130.944 79.4052 130.441 79.3763C129.944 79.3377 129.445 79.2089 128.944 78.9899L129.403 77.6345C129.808 77.7957 130.192 77.8959 130.557 77.9351C130.93 77.9723 131.264 77.9534 131.558 77.8784C131.814 77.8133 131.989 77.7232 132.084 77.6084C132.186 77.4915 132.22 77.3633 132.184 77.2237L132.178 77.2005C132.154 77.1075 132.099 77.0349 132.011 76.9829C131.924 76.9309 131.812 76.8974 131.676 76.8825C131.546 76.8578 131.397 76.842 131.231 76.835C131.064 76.8279 130.888 76.819 130.704 76.8081C130.471 76.8014 130.231 76.784 129.985 76.7559C129.744 76.7182 129.516 76.6522 129.303 76.5581C129.087 76.4562 128.894 76.3154 128.725 76.1356C128.563 75.954 128.443 75.7119 128.366 75.4096L128.36 75.3863C128.279 75.0685 128.267 74.7746 128.322 74.5046C128.383 74.225 128.492 73.9742 128.65 73.7523C128.816 73.5285 129.024 73.3393 129.274 73.185C129.531 73.0286 129.819 72.91 130.136 72.8291C130.532 72.7284 130.948 72.6927 131.384 72.7218C131.827 72.7412 132.247 72.8199 132.646 72.9579L132.282 74.3507C131.927 74.2513 131.589 74.1888 131.268 74.163C130.946 74.1295 130.673 74.1413 130.448 74.1986C130.231 74.2538 130.079 74.3379 129.992 74.4508C129.903 74.556 129.875 74.6706 129.906 74.7946L129.912 74.8179C129.934 74.9032 129.988 74.9718 130.076 75.0238C130.162 75.0681 130.27 75.1064 130.402 75.1388C130.533 75.1635 130.678 75.1842 130.839 75.201C131.008 75.2158 131.185 75.2286 131.369 75.2394C131.604 75.2539 131.847 75.283 132.097 75.3265C132.346 75.3623 132.577 75.4273 132.791 75.5214C133.005 75.6156 133.195 75.7486 133.363 75.9206C133.531 76.0925 133.651 76.3219 133.724 76.6088L133.73 76.632Z" fill="white"/>
<path d="M159.167 77.4717L157.41 77.3171L157.471 76.6238C157.226 76.8512 156.941 77.027 156.617 77.1511C156.294 77.2672 155.909 77.3056 155.463 77.2664C155.16 77.2397 154.877 77.1746 154.613 77.0711C154.357 76.9603 154.137 76.8125 153.953 76.6276C153.768 76.4427 153.627 76.2255 153.528 75.9759C153.439 75.7191 153.408 75.4313 153.436 75.1125L153.438 75.0886C153.469 74.7379 153.559 74.4407 153.709 74.1969C153.859 73.9531 154.053 73.7573 154.291 73.6096C154.536 73.4626 154.818 73.3629 155.136 73.3105C155.463 73.2509 155.817 73.2379 156.2 73.2716C156.526 73.3003 156.807 73.3491 157.042 73.4179C157.285 73.4875 157.518 73.5722 157.742 73.6723L157.752 73.5647C157.786 73.1822 157.696 72.8811 157.482 72.6616C157.268 72.442 156.934 72.3122 156.48 72.2723C156.13 72.2415 155.816 72.246 155.539 72.2859C155.272 72.3186 154.985 72.3777 154.681 72.4634L154.348 71.0368C154.712 70.9162 155.09 70.8249 155.481 70.7629C155.872 70.7009 156.338 70.6938 156.88 70.7414C157.876 70.829 158.58 71.1359 158.991 71.6619C159.403 72.188 159.57 72.8854 159.494 73.754L159.167 77.4717ZM157.644 75.061L157.673 74.7383C157.52 74.6525 157.345 74.581 157.15 74.5236C156.963 74.459 156.757 74.4168 156.534 74.3972C156.144 74.3629 155.83 74.4116 155.594 74.5434C155.357 74.6752 155.227 74.8845 155.201 75.1714L155.199 75.1953C155.177 75.4424 155.252 75.6417 155.424 75.7933C155.595 75.9449 155.828 76.0336 156.123 76.0596C156.553 76.0974 156.905 76.024 157.178 75.8392C157.46 75.6551 157.615 75.3957 157.644 75.061Z" fill="white"/>
<path d="M183.38 82.3903C183.208 82.7693 182.986 83.0769 182.712 83.3132C182.442 83.5421 182.137 83.7026 181.796 83.7946C181.46 83.8793 181.095 83.8988 180.703 83.8532C180.314 83.8003 179.912 83.6799 179.497 83.492C178.914 83.2283 178.386 82.8711 177.914 82.4204C177.445 81.9625 177.075 81.4219 176.803 80.7987L178.337 80.057C178.559 80.4995 178.814 80.887 179.102 81.2195C179.398 81.5552 179.765 81.822 180.202 82.0198C180.552 82.1781 180.85 82.2381 181.095 82.1999C181.351 82.1577 181.531 82.0236 181.633 81.7977L181.643 81.7758C181.692 81.6665 181.713 81.5618 181.706 81.4619C181.709 81.3579 181.668 81.2431 181.585 81.1175C181.508 80.9951 181.385 80.8514 181.214 80.6862C181.05 80.5243 180.826 80.3307 180.541 80.1055C180.198 79.836 179.896 79.572 179.635 79.3136C179.374 79.0553 179.172 78.7928 179.03 78.5262C178.89 78.2524 178.816 77.9599 178.807 77.6487C178.806 77.3409 178.891 76.9974 179.063 76.6184L179.073 76.5965C179.231 76.2466 179.438 75.9629 179.695 75.7452C179.954 75.5203 180.247 75.3585 180.573 75.2599C180.906 75.1646 181.261 75.1365 181.638 75.1755C182.016 75.2145 182.401 75.323 182.795 75.5011C183.356 75.7549 183.832 76.0712 184.223 76.4498C184.621 76.8317 184.946 77.2684 185.197 77.7599L183.749 78.6326C183.512 78.2444 183.259 77.9105 182.99 77.6309C182.725 77.3441 182.428 77.1265 182.1 76.9781C181.772 76.8298 181.495 76.7833 181.268 76.8387C181.051 76.8901 180.9 77.0105 180.815 77.2L180.805 77.2219C180.749 77.3458 180.721 77.465 180.722 77.5796C180.734 77.6901 180.785 77.8099 180.876 77.9388C180.967 78.0677 181.103 78.2128 181.285 78.374C181.474 78.5385 181.712 78.7387 182.001 78.9745C182.341 79.2513 182.631 79.5229 182.87 79.7892C183.12 80.0516 183.306 80.3201 183.428 80.5946C183.56 80.8652 183.623 81.1438 183.616 81.4305C183.617 81.7205 183.541 82.0331 183.39 82.3684L183.38 82.3903Z" fill="white"/>
<path d="M194.399 88.5191C194.349 88.5921 194.304 88.6528 194.261 88.7014C194.225 88.7545 194.18 88.8153 194.124 88.8838L190.413 86.3813C190.253 86.7755 190.225 87.1381 190.33 87.4692C190.446 87.7982 190.673 88.0768 191.011 88.3049C191.264 88.4749 191.518 88.5838 191.775 88.6318C192.032 88.6797 192.332 88.6791 192.674 88.6298L193.023 89.9796C192.561 90.1214 192.09 90.1611 191.611 90.0986C191.137 90.0296 190.657 89.8318 190.173 89.5053C189.775 89.237 189.448 88.9202 189.193 88.5549C188.944 88.1942 188.776 87.8061 188.69 87.3907C188.61 86.9798 188.612 86.5616 188.696 86.136C188.785 85.7038 188.968 85.2821 189.246 84.8708L189.259 84.8509C189.514 84.4729 189.818 84.1572 190.173 83.9039C190.533 83.655 190.915 83.4829 191.317 83.3874C191.719 83.2918 192.128 83.2785 192.545 83.3472C192.969 83.4205 193.376 83.589 193.767 83.8529C194.212 84.1526 194.543 84.4916 194.761 84.8699C194.978 85.2483 195.101 85.645 195.13 86.06C195.17 86.473 195.122 86.8887 194.984 87.3074C194.858 87.7238 194.667 88.1211 194.412 88.4992L194.399 88.5191ZM193.308 86.9591C193.49 86.5895 193.554 86.237 193.5 85.9017C193.451 85.5597 193.267 85.2814 192.949 85.0667C192.631 84.852 192.303 84.7804 191.965 84.8519C191.634 84.9278 191.322 85.1181 191.03 85.4227L193.308 86.9591Z" fill="white"/>
<path d="M204.378 95.0666L204.309 95.0004C203.869 94.5807 203.395 94.3826 202.886 94.4059C202.383 94.4347 201.864 94.7299 201.328 95.2915L199.688 97.0107L198.368 95.7518L202.808 91.0976L204.128 92.3565L203.233 93.2943C203.67 93.1029 204.095 93.0221 204.509 93.052C204.923 93.0818 205.318 93.2931 205.695 93.686L204.378 95.0666Z" fill="white"/>
<path d="M215.083 105.222L208.374 107.064L207.385 105.737L211.067 99.834L212.222 101.383L209.628 105.112L213.95 103.702L215.083 105.222Z" fill="white"/>
<path d="M220.901 113.998L220.028 112.288L221.47 111.551L222.343 113.261L220.901 113.998ZM214.519 117.201L213.69 115.577L219.419 112.652L220.248 114.277L214.519 117.201Z" fill="white"/>
<path d="M220.731 130.664C220.309 130.469 219.932 130.214 219.599 129.899C219.273 129.582 219.014 129.118 218.823 128.507C218.68 128.049 218.63 127.596 218.674 127.146C218.72 126.704 218.84 126.298 219.034 125.927C219.235 125.553 219.502 125.227 219.833 124.947C220.173 124.665 220.56 124.455 220.995 124.319L221.018 124.312C221.453 124.176 221.89 124.127 222.33 124.165C222.769 124.204 223.178 124.319 223.557 124.51C223.936 124.702 224.27 124.966 224.56 125.303C224.852 125.647 225.072 126.056 225.22 126.529C225.402 127.11 225.461 127.619 225.397 128.058C225.334 128.497 225.187 128.912 224.957 129.303L223.479 128.596C223.623 128.333 223.722 128.076 223.777 127.824C223.835 127.579 223.815 127.301 223.717 126.988C223.647 126.766 223.538 126.578 223.389 126.424C223.25 126.274 223.083 126.155 222.887 126.065C222.694 125.983 222.482 125.937 222.252 125.925C222.032 125.918 221.808 125.951 221.579 126.022L221.556 126.03C221.319 126.104 221.108 126.207 220.924 126.341C220.742 126.482 220.596 126.645 220.486 126.83C220.376 127.015 220.306 127.218 220.274 127.437C220.249 127.654 220.274 127.881 220.349 128.118C220.439 128.408 220.576 128.642 220.757 128.82C220.948 129.003 221.177 129.17 221.442 129.322L220.731 130.664Z" fill="white"/>
<path d="M224.792 142.259C224.704 142.271 224.629 142.277 224.564 142.278C224.501 142.286 224.425 142.293 224.337 142.297L223.734 137.861C223.334 138.004 223.045 138.225 222.868 138.524C222.699 138.829 222.642 139.184 222.697 139.589C222.738 139.89 222.826 140.152 222.962 140.376C223.097 140.6 223.297 140.823 223.561 141.046L222.786 142.204C222.373 141.954 222.03 141.629 221.758 141.23C221.493 140.83 221.322 140.34 221.243 139.762C221.179 139.286 221.198 138.831 221.3 138.398C221.404 137.972 221.582 137.588 221.834 137.247C222.088 136.914 222.402 136.637 222.775 136.417C223.157 136.196 223.594 136.052 224.085 135.985L224.109 135.982C224.561 135.92 224.999 135.938 225.424 136.033C225.85 136.137 226.232 136.307 226.571 136.544C226.91 136.78 227.192 137.077 227.418 137.434C227.645 137.798 227.791 138.215 227.854 138.682C227.926 139.214 227.894 139.686 227.756 140.101C227.619 140.515 227.405 140.871 227.114 141.169C226.832 141.473 226.49 141.714 226.086 141.89C225.691 142.072 225.267 142.194 224.815 142.256L224.792 142.259ZM225.23 140.407C225.627 140.297 225.933 140.11 226.147 139.847C226.37 139.582 226.455 139.26 226.404 138.879C226.352 138.499 226.187 138.206 225.909 138.002C225.632 137.805 225.283 137.7 224.861 137.684L225.23 140.407Z" fill="white"/>
<path d="M221.081 167.979C220.897 167.721 220.738 167.46 220.604 167.195C220.47 166.931 220.365 166.648 220.288 166.347C220.217 166.055 220.183 165.741 220.186 165.407C220.182 165.072 220.22 164.704 220.302 164.304C220.426 163.701 220.65 163.163 220.976 162.69C221.301 162.218 221.691 161.832 222.144 161.533C222.605 161.236 223.116 161.034 223.676 160.929C224.237 160.823 224.811 160.83 225.399 160.951L225.422 160.956C226.01 161.076 226.537 161.294 227.003 161.61C227.477 161.928 227.868 162.314 228.175 162.769C228.489 163.225 228.703 163.739 228.815 164.309C228.934 164.88 228.929 165.483 228.799 166.118C228.72 166.502 228.618 166.845 228.491 167.145C228.362 167.454 228.216 167.726 228.054 167.962C227.891 168.198 227.709 168.41 227.507 168.597C227.305 168.785 227.091 168.953 226.865 169.103L225.772 167.679C226.128 167.417 226.423 167.134 226.656 166.831C226.888 166.535 227.047 166.18 227.132 165.765C227.203 165.42 227.202 165.085 227.13 164.76C227.056 164.442 226.923 164.154 226.731 163.894C226.54 163.634 226.299 163.414 226.01 163.232C225.728 163.052 225.411 162.925 225.058 162.853L225.035 162.848C224.682 162.776 224.337 162.767 223.999 162.82C223.662 162.873 223.355 162.978 223.078 163.133C222.799 163.297 222.56 163.509 222.359 163.77C222.165 164.041 222.032 164.352 221.96 164.705C221.863 165.175 221.868 165.589 221.975 165.945C222.08 166.31 222.248 166.683 222.48 167.065L221.081 167.979Z" fill="white"/>
<path d="M218.831 179.92C218.399 179.752 218.024 179.512 217.708 179.201C217.398 178.892 217.159 178.537 216.988 178.136C216.818 177.735 216.727 177.305 216.717 176.846C216.707 176.387 216.793 175.923 216.975 175.453C217.155 174.991 217.4 174.592 217.71 174.258C218.027 173.926 218.381 173.669 218.769 173.485C219.163 173.312 219.578 173.216 220.015 173.197C220.459 173.18 220.897 173.256 221.329 173.424L221.352 173.433C221.784 173.601 222.155 173.839 222.464 174.148C222.781 174.46 223.024 174.817 223.195 175.217C223.365 175.618 223.455 176.048 223.466 176.507C223.476 176.966 223.39 177.431 223.208 177.9C223.028 178.363 222.78 178.76 222.462 179.091C222.152 179.425 221.8 179.679 221.407 179.853C221.018 180.036 220.601 180.136 220.157 180.152C219.721 180.172 219.286 180.097 218.853 179.929L218.831 179.92ZM219.461 178.234L219.483 178.243C219.707 178.33 219.93 178.373 220.153 178.374C220.383 178.378 220.6 178.338 220.805 178.254C221.016 178.173 221.204 178.053 221.369 177.894C221.534 177.735 221.661 177.54 221.751 177.309C221.847 177.063 221.888 176.825 221.873 176.597C221.864 176.378 221.811 176.173 221.714 175.981C221.617 175.789 221.482 175.616 221.31 175.463C221.142 175.321 220.946 175.206 220.722 175.119L220.7 175.111C220.476 175.024 220.249 174.979 220.019 174.975C219.796 174.974 219.579 175.014 219.367 175.095C219.163 175.179 218.98 175.296 218.818 175.448C218.653 175.607 218.524 175.806 218.432 176.045C218.336 176.291 218.293 176.523 218.303 176.741C218.317 176.97 218.372 177.18 218.469 177.372C218.566 177.565 218.699 177.732 218.867 177.874C219.039 178.027 219.237 178.147 219.461 178.234Z" fill="white"/>
<path d="M209.01 191.047L209.946 189.482L213.025 191.324C213.396 191.545 213.721 191.633 214.001 191.586C214.288 191.543 214.519 191.374 214.696 191.079C214.873 190.783 214.916 190.492 214.827 190.206C214.74 189.93 214.511 189.681 214.14 189.46L211.061 187.618L211.998 186.052L215.077 187.894C215.447 188.116 215.773 188.203 216.052 188.156C216.339 188.114 216.571 187.945 216.747 187.649C216.924 187.354 216.968 187.063 216.878 186.777C216.791 186.501 216.562 186.252 216.192 186.03L213.113 184.188L214.049 182.623L219.569 185.925L218.632 187.49L217.85 187.022C217.913 187.181 217.965 187.343 218.007 187.508C218.051 187.683 218.075 187.861 218.079 188.041C218.084 188.22 218.063 188.404 218.016 188.59C217.966 188.784 217.881 188.98 217.762 189.179C217.544 189.543 217.282 189.81 216.975 189.981C216.664 190.158 216.324 190.235 215.956 190.21C216.101 190.623 216.157 191.02 216.125 191.402C216.099 191.787 215.973 192.169 215.748 192.547C215.398 193.13 214.954 193.484 214.413 193.608C213.873 193.732 213.27 193.595 212.604 193.197L209.01 191.047Z" fill="white"/>
<path d="M204.518 201.426C204.11 201.078 203.803 200.705 203.596 200.307C203.39 199.92 203.266 199.529 203.224 199.135C203.183 198.753 203.222 198.381 203.341 198.02C203.461 197.659 203.645 197.332 203.895 197.041C204.212 196.67 204.548 196.425 204.902 196.307C205.25 196.194 205.592 196.139 205.927 196.142L203.83 194.348L205.015 192.962L211.362 198.391L210.176 199.777L209.474 199.176C209.56 199.544 209.574 199.909 209.517 200.271C209.461 200.644 209.277 201.013 208.965 201.378C208.721 201.663 208.429 201.893 208.091 202.067C207.753 202.241 207.386 202.338 206.99 202.357C206.601 202.382 206.196 202.32 205.776 202.171C205.356 202.033 204.943 201.79 204.536 201.442L204.518 201.426ZM205.703 200.04L205.721 200.056C205.922 200.227 206.133 200.35 206.354 200.424C206.577 200.508 206.792 200.545 207.001 200.535C207.217 200.529 207.417 200.48 207.603 200.386C207.789 200.303 207.952 200.18 208.093 200.016C208.233 199.852 208.332 199.668 208.39 199.465C208.449 199.273 208.465 199.07 208.437 198.857C208.409 198.655 208.339 198.447 208.226 198.235C208.114 198.034 207.958 197.847 207.757 197.676L207.739 197.66C207.538 197.489 207.327 197.36 207.105 197.276C206.883 197.202 206.668 197.165 206.458 197.164C206.249 197.175 206.051 197.221 205.864 197.304C205.679 197.398 205.516 197.527 205.375 197.691C205.235 197.855 205.135 198.033 205.077 198.225C205.019 198.428 205.001 198.634 205.023 198.842C205.051 199.056 205.121 199.263 205.233 199.464C205.34 199.671 205.496 199.863 205.703 200.04Z" fill="white"/>
<path d="M193.502 206.968L194.858 205.839L195.303 206.373C195.316 206.039 195.394 205.714 195.537 205.398C195.684 205.087 195.93 204.789 196.274 204.502C196.508 204.307 196.755 204.154 197.015 204.041C197.274 203.94 197.534 203.89 197.795 203.891C198.057 203.892 198.31 203.946 198.556 204.054C198.801 204.172 199.026 204.355 199.23 204.601L199.246 204.619C199.471 204.889 199.617 205.164 199.682 205.443C199.748 205.721 199.748 205.997 199.684 206.269C199.613 206.547 199.483 206.816 199.295 207.077C199.105 207.35 198.863 207.609 198.568 207.855C198.316 208.065 198.082 208.228 197.867 208.345C197.646 208.467 197.421 208.571 197.191 208.658L197.26 208.741C197.506 209.036 197.782 209.186 198.089 209.191C198.395 209.197 198.723 209.053 199.073 208.761C199.344 208.536 199.563 208.312 199.731 208.088C199.898 207.876 200.059 207.633 200.215 207.357L201.456 208.135C201.283 208.477 201.08 208.808 200.846 209.127C200.613 209.447 200.287 209.781 199.869 210.129C199.101 210.769 198.385 211.047 197.723 210.964C197.06 210.881 196.45 210.505 195.891 209.835L193.502 206.968ZM196.282 207.604L196.489 207.853C196.658 207.806 196.832 207.734 197.012 207.636C197.19 207.55 197.365 207.436 197.537 207.292C197.838 207.041 198.026 206.786 198.101 206.526C198.176 206.266 198.121 206.025 197.937 205.804L197.921 205.785C197.763 205.595 197.569 205.506 197.341 205.519C197.112 205.533 196.884 205.634 196.657 205.823C196.325 206.1 196.127 206.4 196.064 206.724C195.994 207.053 196.067 207.346 196.282 207.604Z" fill="white"/>
<path d="M183.417 213.391L184.994 212.475L186.796 215.578C187.013 215.951 187.259 216.183 187.534 216.274C187.812 216.371 188.103 216.331 188.408 216.154C188.712 215.978 188.898 215.74 188.966 215.442C189.03 215.155 188.954 214.824 188.737 214.451L186.935 211.348L188.512 210.432L191.742 215.994L190.165 216.91L189.707 216.121C189.685 216.291 189.653 216.458 189.609 216.622C189.563 216.797 189.498 216.964 189.415 217.124C189.332 217.283 189.225 217.433 189.094 217.574C188.963 217.715 188.797 217.844 188.596 217.96C187.994 218.31 187.424 218.395 186.886 218.218C186.341 218.044 185.882 217.635 185.508 216.992L183.417 213.391Z" fill="white"/>
<path d="M173.709 224.448L173.718 217.411C173.716 217.062 173.739 216.759 173.788 216.501C173.834 216.236 173.911 216.007 174.018 215.813C174.117 215.622 174.253 215.46 174.426 215.328C174.598 215.195 174.812 215.081 175.067 214.986C175.381 214.868 175.673 214.802 175.94 214.787C176.208 214.773 176.475 214.788 176.739 214.835L176.628 216.285C176.491 216.26 176.35 216.248 176.206 216.251C176.054 216.257 175.922 216.28 175.809 216.322C175.659 216.378 175.555 216.452 175.495 216.542C175.424 216.628 175.38 216.76 175.361 216.938L179.981 222.104L178.171 222.78L175.267 219.19L175.485 223.784L173.709 224.448Z" fill="white"/>
<path d="M134.303 135.168L163.272 135.677L162.763 164.646" stroke="black" stroke-width="3" stroke-linecap="round" stroke-linejoin="round"/>
<path d="M161.181 137.021L135.212 162.093" stroke="black" stroke-width="3" stroke-linecap="round" stroke-linejoin="round"/>
<defs>
<linearGradient id="paint0_linear_1511_32" x1="149.229" y1="109.926" x2="149.229" y2="185.809" gradientUnits="userSpaceOnUse">
<stop stop-color="#B4DBDB"/>
<stop offset="1" stop-color="#FFE2E2"/>
</linearGradient>
</defs>
</svg>
