<svg width="168" height="79" viewBox="0 0 168 79" fill="none" xmlns="http://www.w3.org/2000/svg">
<g clip-path="url(#clip0_1427_5)">
<path d="M44.1416 14.752H61.271V18.03H54.6828V35.7312H50.7298V18.03H44.1416V14.752ZM60.2828 20.3246H63.5769V23.2748C63.5769 22.947 63.9063 22.6192 64.2357 21.9636C64.5651 21.308 64.8945 21.308 65.224 20.9802C65.5534 20.6524 66.2122 20.3246 66.5416 20.3246C66.871 19.9968 67.5298 19.9968 68.1887 19.9968H69.1769V23.2748H67.8593C67.2004 23.2748 66.871 23.2748 66.2122 23.6026C65.5534 23.9304 65.224 24.2582 64.8945 24.586C64.5651 24.9138 64.2357 25.5694 63.9063 26.225C63.5769 26.8806 63.5769 27.5362 63.5769 28.5196V35.7312H60.2828V20.3246ZM84.6593 35.7312H81.3651V33.7644C81.0357 34.42 80.3769 35.0756 79.3887 35.7312C78.7298 36.059 77.7416 36.3868 76.7534 36.3868C74.7769 36.3868 73.4592 36.059 72.471 34.7478C71.4828 33.4366 71.1534 32.1254 71.1534 30.1586V20.6524H74.4475V29.8308C74.4475 31.142 74.7769 32.1254 75.1063 32.781C75.7651 33.4366 76.424 33.7644 77.4122 33.7644C78.071 33.7644 78.7298 33.7644 79.0592 33.4366C79.3887 33.1088 80.0475 32.781 80.0475 32.4532C80.3769 32.1254 80.7063 31.7976 80.7063 31.142C80.7063 30.4864 81.0357 30.1586 81.0357 29.503V20.6524H84.3298V35.7312H84.6593ZM90.2593 30.8142C90.2593 31.7976 90.5887 32.4532 91.2475 32.781C91.9063 33.1088 92.5651 33.4366 93.5534 33.4366H94.5416C94.871 33.4366 95.2004 33.4366 95.5298 33.1088C95.8592 33.1088 96.1887 32.781 96.5181 32.4532C96.8475 32.1254 96.8475 31.7976 96.8475 31.4698C96.8475 31.142 96.5181 30.8142 96.5181 30.4864C96.1887 30.1586 95.8592 30.1586 95.5298 29.8308C95.2004 29.8308 94.5416 29.503 93.8828 29.503C93.224 29.503 92.5651 29.1752 92.2357 29.1752C91.5769 29.1752 90.9181 28.8474 90.5887 28.5196C90.2593 28.1918 89.6004 28.1918 88.9416 27.864C88.6122 27.5362 87.9534 27.2084 87.9534 26.5528C87.624 25.8972 87.624 25.2416 87.624 24.586C87.624 23.6026 87.9534 22.947 88.2828 22.6192C88.6122 22.2914 89.271 21.6358 89.9298 21.308C90.5887 20.9802 91.2475 20.6524 91.9063 20.6524C92.5651 20.6524 93.5534 20.3246 94.2122 20.3246C94.871 20.3246 95.8592 20.3246 96.5181 20.6524C97.1769 20.6524 97.8357 20.9802 98.4945 21.308C99.1534 21.6358 99.4828 22.2914 99.8122 22.6192C100.142 23.2748 100.471 23.9304 100.471 24.9138H96.8475C96.8475 24.2582 96.1887 23.6026 95.8593 23.2748C94.871 22.947 94.2122 22.6192 93.5534 22.6192H92.5651C92.2357 22.6192 91.9063 22.6192 91.5769 22.947C91.2475 22.947 90.9181 23.2748 90.9181 23.2748C90.6985 23.4933 90.5887 23.7118 90.5887 23.9304C90.5887 24.2582 90.5887 24.586 90.9181 24.9138C91.2475 25.2416 91.5769 25.2416 91.9063 25.5694C92.2357 25.5694 92.8945 25.8972 93.5534 25.8972C94.2122 25.8972 94.871 26.225 95.5298 26.225C96.1887 26.225 96.8475 26.5528 97.1769 26.8806C97.8357 27.2084 98.1651 27.2084 98.824 27.5362C99.4828 27.864 99.8122 28.1918 99.8122 28.8474C100.142 29.503 100.142 29.8308 100.142 30.8142C100.142 31.7976 99.8122 32.4532 99.4828 33.1088C99.1534 33.7644 98.4945 34.0922 97.8357 34.7478C97.5063 35.4034 96.8475 35.7312 96.1887 35.7312C95.5298 35.7312 94.5416 36.059 93.8828 36.059C92.8945 36.059 91.9063 36.059 91.2475 35.7312C90.5887 35.4034 89.6004 35.0756 89.271 34.7478C88.6122 34.42 88.2828 33.7644 87.9534 33.1088C87.2945 32.4532 86.9651 31.7976 86.9651 30.8142H90.2593ZM101.459 20.3246H104.095V16.0632H107.389V20.6524H110.353V23.2748H107.389V32.4532C107.389 32.6717 107.498 32.8903 107.718 33.1088L108.047 33.4366H110.353V35.7312H108.377C107.389 35.7312 106.73 35.7312 106.4 35.4034C105.742 35.4034 105.412 35.0756 105.083 34.7478C104.753 34.42 104.424 34.0922 104.424 33.4366C104.424 33.1088 104.095 32.4532 104.095 31.7976V22.947H101.459V20.3246ZM112.659 20.3246H115.953V22.6192C116.283 21.6358 116.942 20.9802 117.93 20.6524C118.918 20.3246 119.577 19.9968 120.565 19.9968C121.883 19.9968 122.871 20.3246 123.859 20.6524C124.847 20.9802 125.506 21.6358 126.165 22.2914C126.824 22.947 127.153 23.9304 127.483 24.9138C127.812 25.8972 127.812 26.8806 127.812 28.1918C127.812 29.1752 127.812 30.1586 127.483 31.142C127.153 32.1254 126.824 32.781 126.165 33.7644C125.506 34.42 124.847 35.0756 124.189 35.4034C123.2 35.7312 122.542 36.059 121.224 36.059H119.906C119.577 36.059 118.918 35.7312 118.589 35.7312C118.259 35.4034 117.6 35.4034 117.271 35.0756C116.942 34.7478 116.612 34.42 116.283 34.0922V41.6316H112.989V20.3246H112.659ZM124.518 28.1918C124.518 27.5362 124.518 26.8806 124.189 26.225C123.859 25.5694 123.859 24.9138 123.53 24.586C123.2 24.2582 122.871 23.6026 122.212 23.2748C121.553 22.947 121.224 22.947 120.236 22.947C118.918 22.947 117.6 23.2748 116.942 24.2582C116.283 25.2416 115.953 26.5528 115.953 28.1918C115.953 28.8474 115.953 29.8308 116.283 30.1586C116.612 30.8142 116.612 31.4698 117.271 31.7976C117.6 32.1254 117.93 32.781 118.589 32.781C119.247 33.1088 119.577 33.1088 120.236 33.1088C120.895 33.1088 121.553 33.1088 122.212 32.781C122.871 32.4532 123.2 32.1254 123.53 31.4698C123.859 30.8142 124.189 30.4864 124.189 29.8308C124.189 29.503 124.518 28.8474 124.518 28.1918ZM130.447 14.752H133.742V18.03H130.447V14.752ZM130.447 20.3246H133.742V35.7312H130.447V20.3246ZM136.706 14.752H140V35.7312H136.706V14.752ZM150.212 36.059C148.895 36.059 147.906 35.7312 146.918 35.4034C145.93 35.0756 145.271 34.42 144.612 33.7644C143.953 33.1088 143.295 32.1254 142.965 31.142C142.636 30.1586 142.306 29.1752 142.306 27.864C142.306 26.5528 142.636 25.5694 142.965 24.586C143.295 23.6026 143.953 22.6192 144.612 21.9636C145.271 21.308 145.93 20.6524 146.918 20.3246C147.906 19.9968 148.895 19.669 150.212 19.669C151.53 19.669 152.518 19.9968 153.506 20.3246C154.495 20.6524 155.153 21.308 155.812 21.9636C156.471 22.6192 157.13 23.6026 157.459 24.586C157.789 25.5694 158.118 26.5528 158.118 27.864C158.118 29.1752 157.789 30.1586 157.459 31.142C157.13 32.1254 156.471 33.1088 155.812 33.7644C155.153 34.42 154.495 35.0756 153.506 35.4034C152.518 35.7312 151.53 36.059 150.212 36.059ZM150.212 33.4366C150.871 33.4366 151.53 33.4366 152.189 33.1088C152.847 32.781 153.177 32.4532 153.506 31.7976C153.836 31.142 154.165 30.8142 154.165 30.1586C154.165 29.503 154.495 28.8474 154.495 28.1918C154.495 27.5362 154.495 26.8806 154.165 26.225C154.165 25.5694 153.836 24.9138 153.506 24.586C153.177 24.2582 152.847 23.6026 152.189 23.2748C151.53 22.947 150.871 22.947 150.212 22.947C149.553 22.947 148.895 22.947 148.236 23.2748C147.577 23.6026 147.247 23.9304 146.918 24.586C146.589 25.2416 146.259 25.5694 146.259 26.225C146.259 26.8806 145.93 27.5362 145.93 28.1918C145.93 28.8474 145.93 29.503 146.259 30.1586C146.259 30.8142 146.589 31.4698 146.918 31.7976C147.247 32.4532 147.577 32.781 148.236 33.1088C148.895 33.1088 149.553 33.4366 150.212 33.4366ZM159.106 20.3246H161.742V16.0632H165.036V20.6524H168V23.2748H165.036V32.4532C165.036 32.6717 165.146 32.8903 165.365 33.1088L165.695 33.4366H168V35.7312H166.024C165.036 35.7312 164.377 35.7312 164.047 35.4034C163.389 35.4034 163.059 35.0756 162.73 34.7478C162.4 34.42 162.071 34.0922 162.071 33.4366C162.071 33.1088 161.742 32.4532 161.742 31.7976V22.947H159.106V20.3246Z" fill="white"/>
<path d="M40.1882 14.751H24.7059L20.0941 0L15.1529 14.751H0L12.1882 23.6017L7.57647 38.3527L20.0941 29.1743L32.2824 38.3527L27.6706 23.6017L40.1882 14.751Z" fill="#00B67A"/>
<path d="M28.6585 26.8796L27.6702 23.6016L20.0938 29.1742L28.6585 26.8796Z" fill="#005128"/>
<path d="M31.6235 47.5312H0V79.0001H31.6235V47.5312Z" fill="#00B67A"/>
<path d="M65.5532 47.5312H33.9297V79.0001H65.5532V47.5312Z" fill="#00B67A"/>
<path d="M99.812 47.5312H68.1885V79.0001H99.812V47.5312Z" fill="#00B67A"/>
<path d="M133.741 47.5312H102.117V79.0001H133.741V47.5312Z" fill="#00B67A"/>
<path d="M168 47.5312H136.377V79.0001H168V47.5312Z" fill="#2F2F2F"/>
<path d="M136.377 47.5312H152.189V78.6723H136.377V47.5312Z" fill="#00B67A"/>
<path d="M15.4819 68.5098L20.4231 67.1986L22.3996 73.4268L15.4819 68.5098ZM26.6819 60.6426H18.1172L15.4819 52.7754L12.8466 60.6426H4.61133L11.529 65.5596L8.89368 73.4268L15.8113 68.5098L20.0937 65.5596L26.6819 60.6426Z" fill="white"/>
<path d="M49.7413 68.5098L54.6825 67.1986L56.659 73.4268L49.7413 68.5098ZM60.6119 60.6426H52.0472L49.4119 52.7754L46.7766 60.6426H38.2119L45.1296 65.5596L42.4943 73.4268L49.4119 68.5098L53.6943 65.5596L60.6119 60.6426Z" fill="white"/>
<path d="M84.0001 68.5098L88.9413 67.1986L90.9178 73.4268L84.0001 68.5098ZM94.8707 60.6426H86.306L83.6707 52.7754L81.0354 60.6426H72.4707L79.3884 65.5596L77.0825 73.4268L84.0001 68.5098L88.2825 65.5596L94.8707 60.6426Z" fill="white"/>
<path d="M117.929 68.5098L122.871 67.1986L124.847 73.4268L117.929 68.5098ZM129.129 60.6426H120.565L117.929 52.7754L115.294 60.6426H106.729L113.647 65.5596L111.012 73.4268L117.929 68.5098L122.212 65.5596L129.129 60.6426Z" fill="white"/>
<path d="M152.188 68.5098L157.129 67.1986L159.106 73.4268L152.188 68.5098ZM163.059 60.6426H154.494L151.859 52.7754L149.553 60.6426H140.988L147.906 65.5596L145.271 73.4268L152.188 68.5098L156.471 65.5596L163.059 60.6426Z" fill="white"/>
</g>
<defs>
<clipPath id="clip0_1427_5">
<rect width="168" height="79" fill="white"/>
</clipPath>
</defs>
</svg>
