<svg width="56" height="37" viewBox="0 0 56 37" fill="none" xmlns="http://www.w3.org/2000/svg">
<path d="M0 0.00585938H55.9963V36.9282H0V0.00585938Z" fill="white"/>
<path d="M25.6341 0.00585938V15.5501H0V22.1315H25.6341V36.93H30.826V22.1315H55.9963V15.5501H30.826V0.00585938H25.6341Z" fill="#BD0034"/>
<path d="M23.902 0.00585938H4.375L23.902 12.4177V0.00585938Z" fill="#1A237B"/>
<path d="M0 13.359H13.7628L0 4.58789V13.359Z" fill="#1A237B"/>
<path d="M0 0V2.1598L16.5172 12.5244H20.5734C20.5734 12.5244 4.29422 2.3902 0.426972 0H0Z" fill="#BD0034"/>
<path d="M23.902 36.9274H4.375L23.902 24.5156V36.9274Z" fill="#1A237B"/>
<path d="M0 23.5762H13.7628L0 32.3473V23.5762Z" fill="#1A237B"/>
<path d="M0 36.9345V34.7747L16.5172 24.4102H20.5734C20.5734 24.4102 4.29422 34.5443 0.426972 36.9345H0Z" fill="#BD0034"/>
<path d="M32.0977 0.00585938H51.6246L32.0977 12.4177V0.00585938Z" fill="#1A237B"/>
<path d="M55.9894 13.359H42.2266L55.9894 4.58789V13.359Z" fill="#1A237B"/>
<path d="M55.9992 0V2.1598L39.482 12.5244H35.4258C35.4258 12.5244 51.6997 2.3902 55.5722 0.005276L55.9992 0Z" fill="#BD0034"/>
<path d="M32.0977 36.9274H51.6246L32.0977 24.5156V36.9274Z" fill="#1A237B"/>
<path d="M55.9894 23.5762H42.2266L55.9894 32.3473V23.5762Z" fill="#1A237B"/>
<path d="M55.9992 36.9345V34.7747L39.482 24.4102H35.4258C35.4258 24.4102 51.6997 34.5443 55.5722 36.9292L55.9992 36.9345Z" fill="#BD0034"/>
</svg>
